HIERARCHY
ROOT hip
{
  OFFSET 0 0 0
  CHANNELS 6 Xposition Yposition Zposition Zrotation Yrotation Xrotation
  JOINT abdomen
  {
    OFFSET 0 20.6881 -0.73152
    CHANNELS 3 Zrotation Xrotation Yrotation
    JOINT chest
    {
      OFFSET 0 11.7043 -0.48768
      CHANNELS 3 Zrotation Xrotation Yrotation
      JOINT neck
      {
        OFFSET 0 22.1894 -2.19456
        CHANNELS 3 Zrotation Xrotation Yrotation
        JOINT head
        {
          OFFSET -0.24384 7.07133 1.2192
          CHANNELS 3 Zrotation Xrotation Yrotation
          JOINT leftEye
          {
            OFFSET 4.14528 8.04674 8.04672
            CHANNELS 3 Zrotation Xrotation Yrotation
            End Site
            {
              OFFSET 1 0 0
            }
          }
          JOINT rightEye
          {
            OFFSET -3.6576 8.04674 8.04672
            CHANNELS 3 Zrotation Xrotation Yrotation
            End Site
            {
              OFFSET 1 0 0
            }
          }
        }
      }
      JOINT rCollar
      {
        OFFSET -2.68224 19.2634 -4.8768
        CHANNELS 3 Zrotation Xrotation Yrotation
        JOINT rShldr
        {
          OFFSET -8.77824 -1.95073 1.46304
          CHANNELS 3 Zrotation Xrotation Yrotation
          JOINT rForeArm
          {
            OFFSET -28.1742 -1.7115 0.48768
            CHANNELS 3 Zrotation Xrotation Yrotation
            JOINT rHand
            {
              OFFSET -22.5879 0.773209 7.07136
              CHANNELS 3 Zrotation Xrotation Yrotation
              JOINT rThumb1
              {
                OFFSET -1.2192 -0.487915 3.41376
                CHANNELS 3 Zrotation Xrotation Yrotation
                JOINT rThumb2
                {
                  OFFSET -3.37035 -0.52449 3.41376
                  CHANNELS 3 Zrotation Xrotation Yrotation
                  End Site
                  {
                    OFFSET -1.78271 -1.18214 1.43049
                  }
                }
              }
              JOINT rIndex1
              {
                OFFSET -7.75947 0.938293 5.60832
                CHANNELS 3 Zrotation Xrotation Yrotation
                JOINT rIndex2
                {
                  OFFSET -2.54057 -0.884171 1.56538
                  CHANNELS 3 Zrotation Xrotation Yrotation
                  End Site
                  {
                    OFFSET -1.62519 -0.234802 1.16502
                  }
                }
              }
              JOINT rMid1
              {
                OFFSET -8.24714 1.18213 3.41376
                CHANNELS 3 Zrotation Xrotation Yrotation
                JOINT rMid2
                {
                  OFFSET -3.10165 -0.590103 1.0647
                  CHANNELS 3 Zrotation Xrotation Yrotation
                  End Site
                  {
                    OFFSET -2.48547 -0.328903 0.83742
                  }
                }
              }
              JOINT rRing1
              {
                OFFSET -8.82822 0.546677 1.51678
                CHANNELS 3 Zrotation Xrotation Yrotation
                JOINT rRing2
                {
                  OFFSET -2.60934 -0.819778 -0.0198488
                  CHANNELS 3 Zrotation Xrotation Yrotation
                  End Site
                  {
                    OFFSET -2.33842 -0.294052 0.168128
                  }
                }
              }
              JOINT rPinky1
              {
                OFFSET -8.27202 -0.0477905 -0.4584
                CHANNELS 3 Zrotation Xrotation Yrotation
                JOINT rPinky2
                {
                  OFFSET -1.82734 -0.647385 -0.700984
                  CHANNELS 3 Zrotation Xrotation Yrotation
                  End Site
                  {
                    OFFSET -1.69225 -0.51767 -0.607171
                  }
                }
              }
            }
          }
        }
      }
      JOINT lCollar
      {
        OFFSET 2.68224 19.2634 -4.8768
        CHANNELS 3 Zrotation Xrotation Yrotation
        JOINT lShldr
        {
          OFFSET 8.77824 -1.95073 1.46304
          CHANNELS 3 Zrotation Xrotation Yrotation
          JOINT lForeArm
          {
            OFFSET 28.1742 -1.7115 0.48768
            CHANNELS 3 Zrotation Xrotation Yrotation
            JOINT lHand
            {
              OFFSET 22.5879 0.773209 7.07136
              CHANNELS 3 Zrotation Xrotation Yrotation
              JOINT lThumb1
              {
                OFFSET 1.2192 -0.487915 3.41376
                CHANNELS 3 Zrotation Xrotation Yrotation
                JOINT lThumb2
                {
                  OFFSET 3.37035 -0.52449 3.41376
                  CHANNELS 3 Zrotation Xrotation Yrotation
                  End Site
                  {
                    OFFSET 1.78271 -1.18214 1.43049
                  }
                }
              }
              JOINT lIndex1
              {
                OFFSET 7.75947 0.938293 5.60832
                CHANNELS 3 Zrotation Xrotation Yrotation
                JOINT lIndex2
                {
                  OFFSET 2.54057 -0.884171 1.56538
                  CHANNELS 3 Zrotation Xrotation Yrotation
                  End Site
                  {
                    OFFSET 1.62519 -0.234802 1.16502
                  }
                }
              }
              JOINT lMid1
              {
                OFFSET 8.24714 1.18213 3.41376
                CHANNELS 3 Zrotation Xrotation Yrotation
                JOINT lMid2
                {
                  OFFSET 3.10165 -0.590103 1.0647
                  CHANNELS 3 Zrotation Xrotation Yrotation
                  End Site
                  {
                    OFFSET 2.48547 -0.328903 0.83742
                  }
                }
              }
              JOINT lRing1
              {
                OFFSET 8.82822 0.546677 1.51678
                CHANNELS 3 Zrotation Xrotation Yrotation
                JOINT lRing2
                {
                  OFFSET 2.60934 -0.819778 -0.0198488
                  CHANNELS 3 Zrotation Xrotation Yrotation
                  End Site
                  {
                    OFFSET 2.33842 -0.294052 0.168128
                  }
                }
              }
              JOINT lPinky1
              {
                OFFSET 8.27202 -0.0477905 -0.4584
                CHANNELS 3 Zrotation Xrotation Yrotation
                JOINT lPinky2
                {
                  OFFSET 1.82734 -0.647385 -0.700984
                  CHANNELS 3 Zrotation Xrotation Yrotation
                  End Site
                  {
                    OFFSET 1.69225 -0.51767 -0.607171
                  }
                }
              }
            }
          }
        }
      }
    }
  }
  JOINT rButtock
  {
    OFFSET -8.77824 4.35084 1.2192
    CHANNELS 3 Zrotation Xrotation Yrotation
    JOINT rThigh
    {
      OFFSET 0 -1.70687 -2.19456
      CHANNELS 3 Zrotation Xrotation Yrotation
      JOINT rShin
      {
        OFFSET 0 -36.8199 0.73152
        CHANNELS 3 Zrotation Xrotation Yrotation
        JOINT rFoot
        {
          OFFSET 0.73152 -45.1104 -5.12064
          CHANNELS 3 Zrotation Xrotation Yrotation
          End Site
          {
            OFFSET -1.1221 -3.69964 12.103
          }
        }
      }
    }
  }
  JOINT lButtock
  {
    OFFSET 8.77824 4.35084 1.2192
    CHANNELS 3 Zrotation Xrotation Yrotation
    JOINT lThigh
    {
      OFFSET 0 -1.70687 -2.19456
      CHANNELS 3 Zrotation Xrotation Yrotation
      JOINT lShin
      {
        OFFSET 0 -36.8199 0.73152
        CHANNELS 3 Zrotation Xrotation Yrotation
        JOINT lFoot
        {
          OFFSET -0.73152 -45.1104 -5.12064
          CHANNELS 3 Zrotation Xrotation Yrotation
          End Site
          {
            OFFSET 1.1221 -3.69964 12.103
          }
        }
      }
    }
  }
}
MOTION
Frames:	5
Frame Time:	0.00833333
-1.6523 81.804 25.5586 0.0048 -5.1407 20.1171 6.02064 37.2592 -8.10632 1.66472 -11.3608 -1.44261 -5.60386 10.5302 -1.66201 7.31322 -32.6517 -0.700367 -0.0 0.0 0.0 -0.0 0.0 0.0 8.68941e-14 3.33111e-14 2.24992e-15 38.6745 28.9079 41.7052 -10.7935 -58.1173 133.596 -0.010279 2.88289 0.405515 2.13687e-09 3.08565e-09 -1.03857e-09 3.70086e-09 5.34317e-09 -1.80466e-09 2.13688e-09 3.08565e-09 -1.0386e-09 7.73091 5.47488 0.417314 2.13687e-09 3.08565e-09 -1.03858e-09 2.90554 0.965183 0.102902 2.13687e-09 3.08565e-09 -1.03857e-09 10.2786 0.731801 0.0259123 2.13687e-09 3.08565e-09 -1.03856e-09 2.22167 -0.733487 -0.20892 8.68247e-14 3.32812e-14 1.98668e-15 -32.5948 51.0472 -54.2397 16.2112 -55.7853 -122.775 0.107332 9.30468 -1.31941 4.13165e-10 -2.35576e-10 4.26756e-10 7.14656e-10 -4.12461e-10 7.34694e-10 4.13178e-10 -2.35605e-10 4.2678e-10 -7.73091 5.47488 -0.417314 4.13165e-10 -2.3558e-10 4.26755e-10 -2.90554 0.965183 -0.102902 4.13161e-10 -2.3558e-10 4.26754e-10 -10.2786 0.731801 -0.0259123 4.13173e-10 -2.35578e-10 4.26749e-10 -2.22167 -0.733487 0.20892 -2.03217e-16 0.0 -3.88251e-19 -9.84942 -34.4174 1.6989 -0.108702 22.8905 0.428075 -2.36335 -13.0158 -8.32708 2.03217e-16 0.0 3.88251e-19 10.0031 -41.6738 9.17731 0.210779 36.1088 -0.832951 1.78536 -13.3717 6.64148
-1.64966 81.7978 25.563 -0.015 -5.0342 20.0536 6.00585 37.2465 -8.16049 1.58645 -11.3385 -1.46626 -5.44613 10.4548 -1.67796 7.40631 -32.5757 -0.718204 -0.0 0.0 0.0 -0.0 0.0 0.0 1.24091e-13 2.54623e-14 -4.75592e-14 38.8986 29.3532 41.827 -10.671 -58.1589 133.828 -0.0114108 3.04841 0.428835 2.79846e-09 4.04253e-09 -1.49849e-09 4.84741e-09 7.0022e-09 -2.60292e-09 2.79847e-09 4.04253e-09 -1.49852e-09 7.73091 5.47488 0.417314 2.79846e-09 4.04254e-09 -1.49849e-09 2.90554 0.965183 0.102902 2.79846e-09 4.04254e-09 -1.49849e-09 10.2786 0.731801 0.0259123 2.79846e-09 4.04254e-09 -1.49848e-09 2.22167 -0.733487 -0.20892 1.24001e-13 2.54258e-14 -4.78077e-14 -32.3721 51.0164 -54.3065 16.1927 -55.7952 -122.814 0.10387 9.15316 -1.29756 5.53875e-10 -6.04134e-10 3.77042e-10 9.58449e-10 -1.05292e-09 6.4732e-10 5.53891e-10 -6.04161e-10 3.77064e-10 -7.73091 5.47488 -0.417314 5.53875e-10 -6.04136e-10 3.77042e-10 -2.90554 0.965183 -0.102902 5.53871e-10 -6.04137e-10 3.7704e-10 -10.2786 0.731801 -0.0259123 5.53881e-10 -6.04135e-10 3.77036e-10 -2.22167 -0.733487 0.20892 -2.03217e-16 0.0 -3.88251e-19 -9.89913 -34.4002 1.74987 -0.109092 22.9832 0.432101 -2.42962 -13.1834 -8.47135 2.03217e-16 0.0 3.88251e-19 9.90804 -41.6876 9.13072 0.211455 36.1312 -0.832145 1.75192 -13.3377 6.53846
-1.64672 81.7973 25.5627 -0.0282 -4.9335 20.0141 6.03684 37.1866 -8.02028 1.40923 -11.3142 -1.44498 -5.10412 10.4984 -1.74625 7.14436 -32.6215 -0.968859 -0.0 0.0 0.0 -0.0 0.0 0.0 1.49947e-13 2.28034e-14 -8.03168e-14 39.0783 29.61 41.6446 -10.5274 -58.2074 134.1 -0.0135221 3.33689 0.469495 2.62927e-09 3.82238e-09 -1.55525e-09 4.55472e-09 6.62224e-09 -2.70077e-09 2.62929e-09 3.82239e-09 -1.55528e-09 7.73091 5.47488 0.417314 2.62927e-09 3.82239e-09 -1.55525e-09 2.90554 0.965183 0.102902 2.62928e-09 3.82239e-09 -1.55525e-09 10.2786 0.731801 0.0259123 2.62927e-09 3.82239e-09 -1.55524e-09 2.22167 -0.733487 -0.20892 1.49855e-13 2.27672e-14 -8.05505e-14 -32.0295 51.2215 -54.5735 16.2605 -55.7592 -122.67 0.101605 9.0508 -1.28281 7.87772e-10 -1.24289e-09 1.37095e-10 1.36377e-09 -2.16176e-09 2.30118e-10 7.87788e-10 -1.24292e-09 1.37113e-10 -7.73091 5.47488 -0.417314 7.87773e-10 -1.24289e-09 1.37095e-10 -2.90554 0.965183 -0.102902 7.87768e-10 -1.24289e-09 1.37092e-10 -10.2786 0.731801 -0.0259123 7.87778e-10 -1.24289e-09 1.37087e-10 -2.22167 -0.733487 0.20892 -2.03217e-16 0.0 -3.88251e-19 -9.89101 -34.2862 1.88008 -0.107749 22.8912 0.433931 -2.53298 -13.4273 -8.70116 2.03217e-16 0.0 3.88251e-19 9.81657 -41.7147 9.0244 0.211974 36.1338 -0.830025 1.73145 -13.3148 6.46982
-1.63466 81.8019 25.5557 0.0075 -4.7812 20.0124 6.0939 37.0984 -7.7579 1.16526 -11.2859 -1.39619 -4.63428 10.6176 -1.85205 6.66005 -32.7481 -1.37622 -0.0 0.0 0.0 -0.0 0.0 0.0 1.69512e-13 2.16832e-14 -1.07288e-13 39.2395 29.769 41.2707 -10.3623 -58.2622 134.411 -0.0168893 3.71911 0.523421 1.93084e-09 2.84997e-09 -1.36889e-09 3.34525e-09 4.93936e-09 -2.37614e-09 1.93086e-09 2.84999e-09 -1.3689e-09 7.73091 5.47488 0.417314 1.93084e-09 2.84999e-09 -1.36888e-09 2.90554 0.965183 0.102902 1.93084e-09 2.84998e-09 -1.36888e-09 10.2786 0.731801 0.0259123 1.93083e-09 2.84998e-09 -1.36887e-09 2.22167 -0.733487 -0.20892 1.69427e-13 2.16512e-14 -1.07505e-13 -31.5879 51.5861 -54.9816 16.3813 -55.694 -122.412 0.0999264 8.97311 -1.27163 1.08042e-09 -2.09166e-09 -2.49764e-10 1.87095e-09 -3.63463e-09 -4.41742e-10 1.08044e-09 -2.09168e-09 -2.49751e-10 -7.73091 5.47488 -0.417314 1.08042e-09 -2.09166e-09 -2.49763e-10 -2.90554 0.965183 -0.102902 1.08042e-09 -2.09166e-09 -2.49767e-10 -10.2786 0.731801 -0.0259123 1.08043e-09 -2.09166e-09 -2.49773e-10 -2.22167 -0.733487 0.20892 -2.03217e-16 0.0 -3.88251e-19 -9.83783 -34.0953 2.09448 -0.105076 22.6629 0.434408 -2.6744 -13.742 -9.01543 2.03217e-16 0.0 3.88251e-19 9.72778 -41.745 8.88803 0.212405 36.1207 -0.82677 1.71731 -13.297 6.4163
-1.61687 81.8106 25.5465 0.0791 -4.5512 20.0263 6.15541 36.9949 -7.47309 0.930672 -11.2542 -1.34047 -4.18652 10.7316 -1.95735 6.16591 -32.8969 -1.78243 -0.0 0.0 0.0 -0.0 0.0 0.0 1.81072e-13 2.16551e-14 -1.22285e-13 39.356 29.904 40.8867 -10.1996 -58.3153 134.718 -0.0200243 4.02518 0.566649 1.11983e-09 1.72653e-09 -1.07517e-09 1.94061e-09 2.99449e-09 -1.86525e-09 1.11985e-09 1.72654e-09 -1.07518e-09 7.73091 5.47488 0.417314 1.11984e-09 1.72654e-09 -1.07516e-09 2.90554 0.965183 0.102902 1.11983e-09 1.72653e-09 -1.07516e-09 10.2786 0.731801 0.0259123 1.11982e-09 1.72653e-09 -1.07515e-09 2.22167 -0.733487 -0.20892 1.81002e-13 2.16297e-14 -1.22489e-13 -31.1759 51.9572 -55.3936 16.5059 -55.6255 -122.146 0.0977557 8.87634 -1.25769 1.32792e-09 -2.82886e-09 -6.17443e-10 2.29986e-09 -4.91359e-09 -1.07997e-09 1.32793e-09 -2.82888e-09 -6.17435e-10 -7.73091 5.47488 -0.417314 1.32792e-09 -2.82886e-09 -6.17441e-10 -2.90554 0.965183 -0.102902 1.32791e-09 -2.82886e-09 -6.17446e-10 -10.2786 0.731801 -0.0259123 1.32792e-09 -2.82885e-09 -6.17454e-10 -2.22167 -0.733487 0.20892 -2.03217e-16 0.0 -3.88251e-19 -9.78497 -33.8876 2.30385 -0.101986 22.3898 0.434262 -2.824 -14.0479 -9.35017 2.03217e-16 0.0 3.88251e-19 9.63684 -41.7917 8.73017 0.213037 36.1134 -0.823338 1.69975 -13.2485 6.36085
